PathFileType	4	(X/Y/Z)	 s11c0103.trc
DataRate	CameraRate	NumFrames	NumMarkers	Units	OrigDataRate	OrigDataStartFrame	OrigNumFrames
200	200	4	48	mm	200	501	2000
Frame#	Time	racr			lacr			c7			jug			rlel			rdr			llel			ldr			s2			lic			ric			lasi			rasi			rpsi			lpsi			rgt			lgt			rth1			rth2			rth3			rth4			rlfc			rmfc			rsh1			rsh2			rsh3			rsh4			rlmal			rcal			rtoe			rmt5			lth1			lth2			lth4			lth3			llfc			lmfc			llmal			lcal			lmt5			lsh1			lsh2			lsh3			lsh4			ltoe			SBIKE			LBIKE			RBIKE			
		X1	Y1	Z1	X2	Y2	Z2	X3	Y3	Z3	X4	Y4	Z4	X5	Y5	Z5	X6	Y6	Z6	X7	Y7	Z7	X8	Y8	Z8	X9	Y9	Z9	X10	Y10	Z10	X11	Y11	Z11	X12	Y12	Z12	X13	Y13	Z13	X14	Y14	Z14	X15	Y15	Z15	X16	Y16	Z16	X17	Y17	Z17	X18	Y18	Z18	X19	Y19	Z19	X20	Y20	Z20	X21	Y21	Z21	X22	Y22	Z22	X23	Y23	Z23	X24	Y24	Z24	X25	Y25	Z25	X26	Y26	Z26	X27	Y27	Z27	X28	Y28	Z28	X29	Y29	Z29	X30	Y30	Z30	X31	Y31	Z31	X32	Y32	Z32	X33	Y33	Z33	X34	Y34	Z34	X35	Y35	Z35	X36	Y36	Z36	X37	Y37	Z37	X38	Y38	Z38	X39	Y39	Z39	X40	Y40	Z40	X41	Y41	Z41	X42	Y42	Z42	X43	Y43	Z43	X44	Y44	Z44	X45	Y45	Z45	X46	Y46	Z46	X47	Y47	Z47	X48	Y48	Z48	
501	2.5050	507.114334	1341.363056	-78.966726	495.668762	1366.474678	-414.579241	435.618745	1472.193950	-229.423614	449.009646	1289.141230	-245.581336	531.945662	1087.986165	47.944334	765.997698	930.248875	-20.251432	470.950542	1059.390865	-500.893309	769.400919	932.046199	-430.042676	-111.054581	1215.698028	-259.521576	115.020375	1227.794595	-454.145034	94.596528	1218.752479	-45.007556	140.515640	1145.785107	-416.910292	116.918422	1156.592164	-79.800043	-74.108738	1291.023577	-203.667732	-66.745381	1283.771746	-294.789838	39.858029	1093.939798	-25.312629	44.867514	1096.135020	-455.795631	157.037746	1018.806888	-7.437191	242.991331	993.846944	-6.678472	303.772175	930.433563	-8.319868	261.625153	1023.330333	-19.238471	390.112366	862.237508	-12.317302	405.494125	842.385285	-143.334988	294.813565	731.000488	-18.472946	255.484930	657.831743	-48.259380	183.214455	610.748587	-60.622872	278.678606	646.086321	-77.690654	86.518031	523.367705	-87.866523	32.893463	554.890741	-140.715411	209.067005	326.297978	-140.726022	139.489892	355.419139	-73.153845	154.159024	988.254313	-460.187222	221.997172	938.377990	-445.789699	250.082651	960.586956	-435.853990	257.291411	856.295224	-435.816053	336.251614	738.339996	-402.308392	327.045815	727.650421	-276.690993	254.101851	307.656883	-417.343434	208.702815	243.835547	-386.785311	419.833792	264.831392	-440.449021	314.872981	611.627470	-432.941126	323.457917	527.431716	-420.027885	291.724909	444.936804	-424.319058	349.501231	525.908133	-392.421555	497.843173	317.815779	-365.715680	-203.523051	952.384883	-262.738659	1.320776	82.357712	-460.863924	-15.298169	81.038023	-62.467766	
502	2.5100	509.122051	1339.381028	-78.453551	499.227640	1364.483817	-412.896828	438.911759	1470.887742	-228.667823	451.900256	1288.070041	-244.850713	531.668091	1086.199977	48.515391	766.259972	929.896948	-20.290091	468.948771	1057.274911	-499.735071	769.343600	931.938960	-429.854987	-108.302536	1216.059639	-260.764088	117.713104	1226.933910	-454.243808	96.846358	1219.538513	-45.214109	142.838741	1144.787622	-417.039974	118.645862	1157.734262	-80.443681	-69.954011	1291.426680	-204.540982	-64.107018	1284.174947	-295.489480	41.913876	1095.943307	-24.786470	46.440882	1095.255456	-455.859082	159.032077	1021.182831	-6.742972	245.157458	996.719818	-5.626248	306.297814	933.737508	-6.805521	263.658831	1026.320933	-18.139994	393.333846	866.010554	-10.481960	409.113626	846.397203	-141.281044	297.860302	735.097094	-17.114917	258.227726	662.247453	-47.250765	185.919317	615.352058	-59.908531	282.168937	651.020354	-76.087761	88.945085	528.553490	-87.503757	35.375302	560.180676	-140.519698	211.223720	331.414904	-140.590860	141.669008	360.656521	-73.080571	153.822761	985.489613	-460.166554	220.650203	934.359197	-445.591190	249.147502	956.039003	-435.676646	254.242242	851.676959	-435.322512	331.310476	732.569906	-401.795933	321.769406	722.001452	-276.334058	251.321224	301.670289	-416.966094	206.343435	237.629006	-386.665919	417.337728	259.445871	-440.366870	310.583926	605.984233	-432.350034	319.562879	522.078997	-419.961526	288.167097	439.260256	-424.033434	345.418447	520.484957	-391.874740	495.158063	312.878615	-365.633918	-203.507066	952.415855	-262.711588	1.308947	82.377896	-460.878159	-15.279242	81.044832	-62.453212	
503	2.5150	510.956676	1337.618641	-77.856291	502.965084	1362.701913	-410.771765	442.179528	1469.773135	-227.763228	454.828242	1287.035320	-244.132711	531.697116	1084.577782	48.899646	766.638790	929.542561	-20.312052	466.890817	1055.111672	-498.357459	769.435962	931.812568	-429.631358	-106.132158	1216.871735	-261.024593	120.502566	1226.002745	-454.217499	99.053332	1220.472852	-45.435524	145.147640	1143.610579	-416.853180	120.444771	1158.859435	-80.985716	-67.262054	1292.195276	-205.361731	-61.351932	1284.567859	-296.286867	43.968761	1097.933239	-24.367317	48.026445	1094.275657	-455.749174	161.125271	1023.546534	-6.038582	247.340212	999.707216	-4.652591	308.899339	936.956759	-5.424809	265.511916	1029.410105	-16.984617	396.623902	869.789199	-8.665017	413.882074	850.152618	-137.622621	301.008769	739.170419	-15.880299	261.775285	666.702471	-45.802690	188.656095	620.026950	-59.177033	284.898939	655.179838	-75.320927	91.521883	533.713586	-87.190584	37.839539	565.640872	-140.417723	213.578902	336.520437	-140.523230	144.108677	365.800335	-72.973364	153.508219	982.787163	-460.076132	219.256219	930.337063	-445.240993	248.158164	951.493998	-435.356327	251.116520	847.036271	-434.743886	326.265353	726.942268	-401.254959	316.194058	716.426294	-275.892428	248.509857	295.785867	-416.613457	203.822313	231.740913	-386.557111	414.779704	254.264613	-440.266474	306.111216	600.661963	-431.921609	315.599545	516.339507	-419.016646	284.575646	433.714074	-423.646641	341.265663	515.200595	-391.215551	492.611564	307.807774	-365.601284	-203.452785	952.439165	-262.625330	1.372687	82.370014	-460.829343	-15.238110	81.037627	-62.421735	
504	2.5200	512.573006	1336.062838	-76.945926	506.396975	1360.495725	-408.790354	445.378736	1468.842783	-226.670036	457.842726	1286.040108	-243.193534	531.952703	1083.140561	49.098944	767.214733	929.136734	-20.289430	465.132557	1053.423178	-496.908158	769.628701	931.597696	-429.248064	-103.814163	1217.690430	-261.452493	123.285547	1225.071330	-454.119390	101.182416	1221.520287	-45.641651	147.761331	1142.742519	-416.894422	122.169086	1160.160554	-81.545210	-64.436434	1293.124532	-206.213645	-58.667249	1285.097797	-297.039951	45.962177	1099.995259	-24.037047	49.549909	1093.425158	-455.599611	163.232391	1025.983631	-5.343184	249.497759	1002.590634	-3.749240	311.430349	940.254847	-4.110817	267.588246	1032.360392	-16.032097	399.821498	873.652444	-7.002867	417.427367	853.895573	-135.933210	304.166720	743.186048	-14.702123	264.610270	670.833460	-44.987622	191.521424	624.602574	-58.537044	288.056173	658.782440	-74.581318	94.184525	538.801045	-86.962677	40.611771	571.494517	-139.464955	216.044981	341.608855	-140.450609	146.644471	370.888620	-72.784423	152.988361	980.156485	-459.891656	217.614581	926.399283	-444.903705	246.991734	947.015475	-435.074930	247.760371	842.563351	-434.149441	321.031786	721.513034	-400.750500	310.364911	711.043531	-275.488109	245.585523	290.114319	-416.366007	201.234885	225.905304	-386.484759	412.071014	249.193650	-440.111019	301.550157	595.454002	-431.471982	311.199810	511.302348	-418.719152	280.796863	428.431652	-423.282422	336.909607	510.228067	-390.584454	489.703547	302.926282	-365.506767	-203.430404	952.450599	-262.547731	1.389482	82.425689	-460.863307	-15.252014	81.061293	-62.434608	
